<svg width="408" height="425" viewBox="0 0 408 425" fill="none" xmlns="http://www.w3.org/2000/svg">
    <path fill-rule="evenodd" clip-rule="evenodd" d="M385.77 72.6667V224.25C385.77 262.154 369.702 316.445 330 355.5C291.088 393.779 238.821 409.103 200.917 409.103C163.013 409.103 110.006 394.111 71 355.5C31.5101 316.41 16.0638 262.154 16.0638 224.25V72.6667H385.77ZM401 0.5H196.5H0.833344V224.25C0.833343 250.525 6.00865 276.543 16.0638 300.819C26.1189 325.094 40.8569 347.151 59.4364 365.73C78.0159 384.31 100.073 399.048 124.348 409.103C148.623 419.158 174.641 424.333 200.917 424.333C227.192 424.333 253.21 419.158 277.485 409.103C301.76 399.048 323.818 384.31 342.397 365.73C360.976 347.151 375.714 325.094 385.77 300.819C395.825 276.543 401 250.525 401 224.25V0.5Z" fill="#072A4B"/>
    <path d="M385.77 72.6667V224.25C385.77 262.154 369.702 316.445 330 355.5C291.088 393.779 238.821 409.103 200.917 409.103C163.013 409.103 110.006 394.111 71 355.5C31.5101 316.41 16.0638 262.154 16.0638 224.25V72.6667H385.77Z" fill="white"/>
    <line x1="18.1062" y1="65.9612" x2="353.106" y2="338.961" stroke="#072A4B" stroke-width="13"/>
    <line y1="-6.5" x2="432.15" y2="-6.5" transform="matrix(-0.775193 0.631724 0.631724 0.775193 386 73)" stroke="#072A4B" stroke-width="13"/>
    <path fill-rule="evenodd" clip-rule="evenodd" d="M176.232 162.342L132 126.296L139.336 120.59L181.896 155.391L176.232 162.342Z" fill="#FF5733" stroke="#FF5733" stroke-width="10"/>
    <path fill-rule="evenodd" clip-rule="evenodd" d="M139.336 132.002L181.938 96.9508L176.273 90L132.041 126.046L139.336 132.002Z" fill="#FF5733" stroke="#FF5733" stroke-width="10"/>
    <path fill-rule="evenodd" clip-rule="evenodd" d="M226.229 162.342L270.461 126.296L263.125 120.59L220.565 155.391L226.229 162.342Z" fill="#FF5733" stroke="#FF5733" stroke-width="10"/>
    <path fill-rule="evenodd" clip-rule="evenodd" d="M263.125 132.002L220.523 96.9508L226.187 90L270.419 126.046L263.125 132.002Z" fill="#FF5733" stroke="#FF5733" stroke-width="10"/>
    <path d="M226.469 372.639C226.395 372.825 226.27 372.989 226.108 373.116C225.945 373.242 225.75 373.326 225.542 373.359L155.966 384.276C154.995 384.429 154.41 383.234 155.126 382.56L184.576 354.826C187.839 356.721 191.727 357.421 195.503 356.795C199.278 356.168 202.678 354.257 205.055 351.426C207.433 348.594 208.624 345.039 208.401 341.435C208.178 337.832 206.557 334.431 203.846 331.879C201.135 329.326 197.523 327.8 193.696 327.59C189.869 327.38 186.093 328.501 183.086 330.74C180.079 332.979 178.049 336.18 177.384 339.734C176.718 343.289 177.462 346.95 179.475 350.023L149.86 377.912C149.159 378.572 148.022 377.957 148.19 377.009L159.797 311.445C159.833 311.251 159.922 311.069 160.054 310.917C160.187 310.765 160.36 310.648 160.555 310.578L194.279 298.684L239.101 340.887L226.469 372.639Z" fill="#B56EDB"/>
    <path d="M184.359 342.297C184.359 340.729 184.853 339.195 185.779 337.891C186.704 336.587 188.019 335.571 189.558 334.971C191.097 334.371 192.791 334.214 194.424 334.52C196.058 334.826 197.559 335.581 198.736 336.69C199.914 337.799 200.716 339.212 201.041 340.75C201.366 342.288 201.199 343.883 200.562 345.332C199.925 346.78 198.845 348.019 197.46 348.89C196.075 349.762 194.447 350.227 192.781 350.227C190.548 350.227 188.405 349.391 186.826 347.904C185.247 346.417 184.359 344.4 184.359 342.297Z" fill="#B56EDB"/>
    <path d="M258.598 320.83L243.312 335.223L200.289 294.719L215.58 280.321C215.692 280.215 215.825 280.132 215.971 280.075C216.117 280.018 216.274 279.989 216.432 279.989C216.59 279.989 216.746 280.018 216.892 280.075C217.038 280.132 217.171 280.215 217.283 280.321L258.598 319.227C258.71 319.332 258.799 319.457 258.859 319.595C258.92 319.732 258.951 319.88 258.951 320.029C258.951 320.178 258.92 320.325 258.859 320.463C258.799 320.6 258.71 320.725 258.598 320.83Z" fill="#B56EDB"/>
    <path d="M338.614 206.25C343.565 206.25 347.583 210.268 347.583 215.219V239.557C347.583 245.675 345.153 251.543 340.827 255.869C336.501 260.195 330.633 262.625 324.515 262.625C318.397 262.625 312.53 260.195 308.204 255.869C303.878 251.543 301.448 245.675 301.448 239.557V215.219C301.448 210.268 305.461 206.25 310.416 206.25H338.614ZM299.546 206.25C297.7 208.471 296.59 211.211 296.369 214.091L296.318 215.219V239.557C296.318 243.898 297.302 248.009 299.054 251.678C296.017 252.491 292.833 252.594 289.749 251.979C286.665 251.365 283.764 250.05 281.269 248.135C278.775 246.22 276.754 243.757 275.364 240.937C273.973 238.117 273.25 235.014 273.25 231.87V215.219C273.25 212.968 274.097 210.799 275.621 209.144C277.146 207.488 279.238 206.466 281.481 206.281L282.219 206.25H299.546ZM349.484 206.25H366.781C371.732 206.25 375.75 210.268 375.75 215.219V231.875C375.751 235.017 375.029 238.118 373.64 240.937C372.252 243.756 370.234 246.218 367.743 248.133C365.251 250.048 362.352 251.365 359.271 251.981C356.19 252.598 353.008 252.497 349.971 251.688C351.509 248.47 352.452 244.923 352.662 241.172L352.708 239.557V215.219C352.708 211.811 351.504 208.684 349.484 206.25ZM324.5 170.375C328.578 170.375 332.488 171.995 335.372 174.878C338.255 177.762 339.875 181.672 339.875 185.75C339.875 189.828 338.255 193.738 335.372 196.622C332.488 199.505 328.578 201.125 324.5 201.125C320.422 201.125 316.512 199.505 313.628 196.622C310.745 193.738 309.125 189.828 309.125 185.75C309.125 181.672 310.745 177.762 313.628 174.878C316.512 171.995 320.422 170.375 324.5 170.375ZM357.812 175.5C361.211 175.5 364.469 176.85 366.872 179.253C369.275 181.656 370.625 184.914 370.625 188.312C370.625 191.711 369.275 194.969 366.872 197.372C364.469 199.775 361.211 201.125 357.812 201.125C354.414 201.125 351.156 199.775 348.753 197.372C346.35 194.969 345 191.711 345 188.312C345 184.914 346.35 181.656 348.753 179.253C351.156 176.85 354.414 175.5 357.812 175.5ZM291.188 175.5C294.586 175.5 297.844 176.85 300.247 179.253C302.65 181.656 304 184.914 304 188.312C304 191.711 302.65 194.969 300.247 197.372C297.844 199.775 294.586 201.125 291.188 201.125C287.789 201.125 284.531 199.775 282.128 197.372C279.725 194.969 278.375 191.711 278.375 188.312C278.375 184.914 279.725 181.656 282.128 179.253C284.531 176.85 287.789 175.5 291.188 175.5Z" fill="#23A8D1"/>
    <g clip-path="url(#clip0_569_2590)">
        <path fill-rule="evenodd" clip-rule="evenodd" d="M75.8667 196.3C75.8667 188.264 72.6744 180.557 66.992 174.875C61.3096 169.192 53.6027 166 45.5667 166H22V189.567C22 197.603 25.1923 205.31 30.8747 210.992C36.557 216.674 44.2639 219.867 52.3 219.867H69.1333V267H75.8667V240.067H92.7C100.736 240.067 108.443 236.874 114.125 231.192C119.808 225.51 123 217.803 123 209.767V186.2H99.4333C89.9124 186.2 81.4217 190.59 75.8667 197.451V196.3ZM68.1503 207.383L47.9503 187.183L43.1831 191.95L63.3831 212.15L68.1503 207.383ZM81.6169 232.35L101.817 212.15L97.0497 207.383L76.8497 227.583L81.6169 232.35Z" fill="#23D320"/>
    </g>
    <path d="M23.16 51C22.0667 51 21.0667 50.7333 20.16 50.2C19.28 49.6667 18.5733 48.96 18.04 48.08C17.5067 47.1733 17.24 46.1733 17.24 45.08V28.12C17.24 27.0267 17.5067 26.04 18.04 25.16C18.5733 24.2533 19.28 23.5333 20.16 23C21.0667 22.4667 22.0667 22.2 23.16 22.2H45.96V28.44H24.76C24.3333 28.44 24 28.5467 23.76 28.76C23.5467 28.9733 23.44 29.3067 23.44 29.76V43.44C23.44 43.8667 23.5467 44.2 23.76 44.44C24 44.6533 24.3333 44.76 24.76 44.76H45.96V51H23.16ZM55.9706 51C54.904 51 53.9173 50.7333 53.0106 50.2C52.104 49.6667 51.384 48.9467 50.8506 48.04C50.3173 47.1333 50.0506 46.1467 50.0506 45.08V28.12C50.0506 27.0267 50.3173 26.04 50.8506 25.16C51.384 24.2533 52.104 23.5333 53.0106 23C53.9173 22.4667 54.904 22.2 55.9706 22.2H72.9306C73.9973 22.2 74.9706 22.4667 75.8506 23C76.7573 23.5333 77.4773 24.2533 78.0106 25.16C78.5706 26.04 78.8506 27.0267 78.8506 28.12V45.08C78.8506 46.1467 78.5706 47.1333 78.0106 48.04C77.4773 48.9467 76.7573 49.6667 75.8506 50.2C74.9706 50.7333 73.9973 51 72.9306 51H55.9706ZM56.2506 44.76H72.5706V28.44H56.2506V44.76ZM83.2556 51V22.2H89.6556L99.4156 33.84L109.136 22.2H115.576V51H109.336V31.68L99.4156 43.52L89.4556 31.72V51H83.2556ZM120.445 51V22.2H147.045V28.44H126.725V33.48H143.085V39.72H126.725V44.76H147.045V51H120.445ZM160.83 51V28.44H149.55V22.2H178.35V28.44H167.07V51H160.83Z" fill="white"/>
    <path d="M233.08 51C232.013 51 231.027 50.7333 230.12 50.2C229.213 49.6667 228.493 48.9467 227.96 48.04C227.427 47.1333 227.16 46.1467 227.16 45.08V28.12C227.16 27.0267 227.427 26.04 227.96 25.16C228.493 24.2533 229.213 23.5333 230.12 23C231.027 22.4667 232.013 22.2 233.08 22.2H250.04C251.107 22.2 252.08 22.4667 252.96 23C253.867 23.5333 254.587 24.2533 255.12 25.16C255.68 26.04 255.96 27.0267 255.96 28.12V45.08C255.96 46.1467 255.68 47.1333 255.12 48.04C254.587 48.9467 253.867 49.6667 252.96 50.2C252.08 50.7333 251.107 51 250.04 51H233.08ZM233.36 44.76H249.68V28.44H233.36V44.76ZM260.445 51V22.2H283.285C284.378 22.2 285.365 22.4667 286.245 23C287.152 23.5333 287.872 24.2533 288.405 25.16C288.965 26.04 289.245 27.0267 289.245 28.12V45.08C289.245 46.1467 288.965 47.1333 288.405 48.04C287.872 48.9467 287.152 49.6667 286.245 50.2C285.365 50.7333 284.378 51 283.285 51H260.445ZM266.605 44.76H282.965V28.44H266.605V44.76ZM293.804 51V22.2H320.404V28.44H300.084V33.48H316.444V39.72H300.084V44.76H320.404V51H293.804ZM346.709 51L338.349 41.04H346.469L353.109 48.88V51H346.709ZM324.349 51V22.24H347.189C348.283 22.24 349.269 22.5067 350.149 23.04C351.056 23.5733 351.776 24.2933 352.309 25.2C352.869 26.1067 353.149 27.0933 353.149 28.16V35.6C353.149 36.6667 352.869 37.6533 352.309 38.56C351.776 39.4667 351.056 40.1867 350.149 40.72C349.269 41.2533 348.283 41.52 347.189 41.52L330.549 41.56V51H324.349ZM330.549 35.28H346.869V28.44H330.549V35.28ZM363.197 51C362.131 51 361.144 50.7333 360.237 50.2C359.331 49.6667 358.611 48.9467 358.077 48.04C357.544 47.1333 357.277 46.1467 357.277 45.08V42.4H363.477V44.76H379.797V39.72H363.197C362.131 39.72 361.144 39.4533 360.237 38.92C359.331 38.3867 358.611 37.68 358.077 36.8C357.544 35.8933 357.277 34.8933 357.277 33.8V28.12C357.277 27.0267 357.544 26.04 358.077 25.16C358.611 24.2533 359.331 23.5333 360.237 23C361.144 22.4667 362.131 22.2 363.197 22.2H380.157C381.224 22.2 382.197 22.4667 383.077 23C383.984 23.5333 384.704 24.2533 385.237 25.16C385.797 26.04 386.077 27.0267 386.077 28.12V30.8H379.797V28.44H363.477V33.48H380.157C381.224 33.48 382.197 33.7467 383.077 34.28C383.984 34.8133 384.704 35.5333 385.237 36.44C385.797 37.32 386.077 38.3067 386.077 39.4V45.08C386.077 46.1467 385.797 47.1333 385.237 48.04C384.704 48.9467 383.984 49.6667 383.077 50.2C382.197 50.7333 381.224 51 380.157 51H363.197Z" fill="white"/>
    <path d="M191 57C189.533 57 188.195 56.6517 186.985 55.955C185.812 55.2217 184.858 54.2683 184.125 53.095C183.428 51.885 183.08 50.5467 183.08 49.08V25.32C183.08 23.8533 183.428 22.5333 184.125 21.36C184.858 20.15 185.812 19.1967 186.985 18.5C188.195 17.7667 189.533 17.4 191 17.4H222.57V25.375H192.87C192.283 25.375 191.825 25.54 191.495 25.87C191.165 26.1633 191 26.6217 191 27.245V47.155C191 47.7417 191.165 48.2 191.495 48.53C191.825 48.86 192.283 49.025 192.87 49.025H222.57V57H191Z" fill="white"/>
    <defs>
        <clipPath id="clip0_569_2590">
            <rect width="101" height="101" fill="white" transform="matrix(-1 0 0 1 123 166)"/>
        </clipPath>
    </defs>
</svg>
